<?xml version="1.0" encoding="utf-8"?>
<!-- Generator: Adobe Illustrator 23.1.1, SVG Export Plug-In . SVG Version: 6.00 Build 0)  -->
<svg version="1.1" id="圖層_1" xmlns="http://www.w3.org/2000/svg" xmlns:xlink="http://www.w3.org/1999/xlink" x="0px" y="0px"
	 viewBox="0 0 600 49.465" style="enable-background:new 0 0 600 49.465;" xml:space="preserve">
<style type="text/css">
	.st0{fill:#919191;}
</style>
<path class="st0" d="M574.145,21.136c-6.232,4.215-14.243,5.245-21.272,2.964c0.729-3.371-1.144-7.248-5.299-6.658
	c-1.971,0.28-3.975,2.261-2.671,4.278c0.827,1.279,2.437,2.326,4.18,3.156c-0.878,0.782-2.015,1.325-3.122,1.644
	c-4.332,1.247-9.585,0.742-14.018,0.243c-4.904-0.552-9.735-1.709-14.364-3.42c-0.511-0.189-1.041-0.387-1.567-0.603
	c1.611-1.706,2.163-3.897,0.321-6.651c-1.227-1.835-3.532-3.451-5.762-2.41c-2.169,1.013-2.081,3.307-1.186,5.208
	c0.626,1.331,1.509,2.455,2.554,3.425c-2.533,1.57-6.082,2.264-8.438,2.791c-4.866,1.088-9.869,1.489-14.847,1.207
	c-4.823-0.274-10.078-0.964-14.513-2.981c-0.443-0.201-0.87-0.431-1.267-0.689c1.819-1.216,3.51-2.645,5.035-4.301
	c0.281-0.305,0.13-0.748-0.021-1.072c-1.011-2.173-3.426-4.948-6.077-5.038c-2.275-0.077-3.67,2.39-3.915,4.352
	c-0.236,1.893,0.226,3.48,1.124,4.813c-10.563,5.998-24.461,5.021-36.026,2.324c-2.028-0.473-4.711-1.185-6.54-2.503
	c1.569-0.961,3.213-2.014,4.533-3.286c1.073-1.034,0.956-2.07,0.348-3.456c-0.988-2.252-3.656-4.407-6.234-3.557
	c-2.524,0.832-3.46,3.934-3.157,6.322c0.123,0.967,0.408,1.828,0.814,2.603c-0.13,0.069-0.265,0.14-0.386,0.206
	c-6.968,3.765-15.098,5.371-22.972,4.567c-3.484-0.356-7.746-1.061-10.886-2.986c1.419-1.798,2.599-3.783,3.455-5.944
	c0.857-2.163-0.719-4.211-2.97-4.722c-2.167-0.492-4.561,0.832-5.63,2.705c-1.555,2.725-0.439,5.241,1.616,7.278
	c-0.614,0.667-1.258,1.306-1.935,1.907c-2.944,2.612-6.408,4.595-10.109,5.921c-9.16,3.28-19.275,2.354-28.58,0.22
	c-1.893-0.434-4.59-1.008-6.606-2.155c2.695-1.664,4.275-4.116,2.564-7.76c-0.989-2.106-3.207-3.891-5.469-2.516
	c-2.089,1.269-2.703,4.157-2.192,6.409c0.226,0.997,0.62,1.877,1.138,2.662c-4.126,1.843-9.425,2.271-13.697,2.558
	c-5.411,0.363-10.928,0.086-16.249-0.992c-2.928-0.593-6.593-1.638-9.005-3.78c3.621-3.15,6.753-7.978,4.155-12.359
	c-3.506-5.914-8.839-0.374-9.213,4.472c-0.193,2.499,0.509,4.698,1.764,6.572c-0.789,0.567-1.62,1.09-2.489,1.573
	c-5.733,3.186-12.199,5.146-18.734,5.693c-6.204,0.518-13.734,0.215-19.416-2.606c-0.025-0.013-0.05-0.026-0.075-0.039
	c2.848-1.702,4.395-4.145,1.612-7.611c-1.519-1.891-4.126-2.603-5.832-0.538c-1.661,2.011-1.167,4.973,0.223,6.981
	c-1.272,0.438-2.536,0.728-3.341,0.938c-7.759,2.023-26.955,5.603-32.735-2.949c3.773-2.552,6.608-6.082,4.674-10.816
	c-0.671-1.642-2.842-4.583-4.918-4.118c-2.538,0.568-3.776,4.841-3.927,6.962c-0.162,2.284,0.314,4.419,1.24,6.331
	c-4.357,2.796-9.897,4.468-14.67,5.573c-6.766,1.567-13.813,1.852-20.682,0.83c-1.265-0.188-3.061-0.407-4.692-0.912
	c1.295-1.128,2.022-2.625,1.747-4.635c-0.305-2.235-2.126-4.805-4.544-5.006c-2.645-0.22-3.896,2.641-3.684,4.904
	c0.148,1.579,0.751,2.855,1.654,3.894c-2.229,0.859-4.788,1.156-7.073,1.489c-3.983,0.58-8.008,0.851-12.033,0.82
	c-7.018-0.054-14.35-0.859-21.049-3.028c-1.005-0.325-2.643-0.981-3.878-1.905c0.128-0.086,0.259-0.168,0.387-0.255
	c1.237-0.837,4.153-2.15,4.493-3.654c0.998-4.414-6.328-4.985-8.355-2.274c-1.041,1.392-0.691,3.222,0.085,4.731
	c-4.566,2.995-9.389,5.668-14.698,7.02c-6.07,1.546-12.466,0.938-17.658-2.768c-1.326-0.946-2.519-2.093-3.474-3.409
	c2.457-1.783,4.789-4.064,5.019-7.072c0.364-4.771-7.266-10.251-9.388-4.006c-1.08,3.178-0.358,6.51,1.24,9.453
	c-3.152,2.206-6.6,3.988-10.2,5.338c-6.535,2.451-14.58,4.078-21.529,2.628c-0.648-0.135-1.454-0.342-2.214-0.66
	c1.719-1.584,3.887-4.02,3.648-5.836c-0.26-1.971-2.909-3.207-4.63-2.872c-2.228,0.435-4.199,2.697-3.954,5.015
	c0.108,1.02,0.533,1.958,1.143,2.788c-4.695,3.565-11.041,4.655-16.572,2.473c-1.64-0.647-0.287,2.044,0.699,2.433
	c6.059,2.391,13.042,1.226,18.174-2.74c0.526,0.358,1.072,0.666,1.609,0.914c6.663,3.076,16.095,1.321,22.796-0.758
	c4.066-1.262,7.948-3.072,11.543-5.35c0.385-0.244,0.787-0.5,1.196-0.769c1.197,1.545,2.596,2.902,4.013,3.96
	c5.642,4.213,12.617,5.459,19.436,3.938c4.338-0.968,8.397-2.886,12.216-5.119c1.174-0.686,2.323-1.413,3.463-2.154
	c1.868,1.764,4.347,2.836,6.781,3.554c9.186,2.71,19.132,3.457,28.646,2.616c2.926-0.259,8.957-0.503,12.927-2.405
	c3.454,1.8,8.153,2.276,11.33,2.553c8.983,0.783,18.188-0.611,26.527-4.043c1.73-0.712,3.81-1.633,5.77-2.789
	c1.774,2.272,4.23,4.066,6.964,5.169c7.56,3.048,16.729,1.934,24.509,0.41c1.876-0.368,5.232-1.076,8.071-2.303
	c1.925,1.435,4.315,2.241,6.62,2.845c4.048,1.06,8.242,1.585,12.426,1.551c8.306-0.066,16.581-2.245,23.767-6.426
	c0.583-0.339,1.195-0.745,1.81-1.203c2.085,1.949,4.778,3.385,7.435,4.257c8.272,2.715,17.743,2.707,26.26,1.364
	c2.228-0.351,5.691-0.989,8.587-2.246c3.804,2.985,9.96,3.87,14.083,4.591c8.957,1.566,18.589,1.692,27.053-2.053
	c3.927-1.737,7.578-4.26,10.451-7.456c1.911,1.271,4.015,2.209,5.545,2.688c7.415,2.326,15.533,2.31,23.001,0.225
	c3.031-0.846,5.954-2.05,8.706-3.57c3.277,2.875,8.729,3.92,12.54,4.654c7.323,1.409,14.915,2.009,22.313,0.81
	c4.152-0.673,8.126-1.996,11.688-4.052c2.714,2.051,6.527,3.209,9.402,3.866c8.588,1.962,17.613,1.879,26.154-0.294
	c2.192-0.558,5.276-1.563,7.573-3.11c3.929,2.392,9.051,3.442,13.114,4.268c4.212,0.856,8.497,1.312,12.796,1.309
	c3.403-0.002,7.46,0.042,10.351-2.029c0.603-0.432,1.087-0.974,1.461-1.579c0.684,0.238,1.33,0.444,1.892,0.614
	c7.565,2.289,15.836,1.106,22.379-3.319C577.247,22.775,575.168,20.443,574.145,21.136z M42.731,22.984
	c0.163-0.064,0.472-0.182,0.743-0.242c-0.448,0.265-0.772,1.276-1.098,1.735c-0.612,0.863-1.316,1.657-2.084,2.384
	c-0.07-0.235-0.106-0.487-0.096-0.761C40.244,24.763,41.559,23.44,42.731,22.984z M80.085,12.033
	c3.577-0.122,1.856,4.484,0.69,5.992c-0.733,0.949-1.639,1.749-2.589,2.487c-0.033-0.087-0.074-0.171-0.105-0.26
	C77.327,18.105,76.537,12.154,80.085,12.033z M117.752,19.904c0.446-0.668,1.222-1.054,1.978-1.261
	c0.155-0.043,1.518-0.297,1.536-0.138c0.021,0.175-2.065,1.482-2.18,1.562c-0.601,0.419-1.206,0.835-1.815,1.249
	C117.277,20.87,117.422,20.399,117.752,19.904z M167.008,21.385c0.977,1.535-0.972,3.432-2.287,4.303
	c-0.566-0.605-0.918-1.36-0.923-2.315C163.791,22.254,165.243,18.61,167.008,21.385z M209.099,18.237
	c-0.093-1.881,0.45-5.592,2.466-6.553c0.169-0.136,0.338-0.271,0.507-0.407c0.393,0.44,0.787,0.881,1.18,1.321
	c0.35,0.749,0.314,1.995,0.168,2.777c-0.326,1.752-1.477,3.223-2.77,4.391c-0.371,0.335-0.764,0.654-1.166,0.965
	C209.279,19.965,209.144,19.138,209.099,18.237z M248.246,22.011c0.454-1.543,2.765-3.255,2.926-0.469
	c0.086,1.484-1.082,2.526-2.575,3.28C248.107,24.04,247.924,23.104,248.246,22.011z M292.525,19.759
	c-0.919-3.492,0.558-7.685,4.086-8.843c1.558,1.727,0.387,4.658-0.656,6.47c-0.805,1.398-1.816,2.57-2.97,3.586
	C292.801,20.588,292.639,20.19,292.525,19.759z M335.193,21.411c0.362-1.305,2.535-4.339,3.174-1.617
	c0.491,2.093-1.265,3.957-2.872,4.95C334.984,23.847,334.82,22.754,335.193,21.411z M386.21,15.013
	c0.35-0.407,2.983-2.388,3.456-1.549c0.434,0.77-2.197,4.345-2.658,4.993c-0.269,0.378-0.55,0.747-0.84,1.11
	C385.189,18.183,384.953,16.476,386.21,15.013z M424.754,15.747c0.253-0.682,0.709-1.562,1.37-1.939
	c1.044-0.595,0.679-0.539,1.722,0.73c1.402,1.705,1.049,0.751,0.289,1.68c-0.82,1.002-2.202,1.886-3.55,2.64
	C424.293,17.983,424.304,16.958,424.754,15.747z M470.499,17.569c0.685-2.853,3.272-3.486,4.837-1.098
	c-1.425,1.489-2.968,2.768-4.605,3.859C470.363,19.532,470.248,18.613,470.499,17.569z M511.685,19.274
	c-0.563-1.178-0.628-2.446,0.692-3.114c1.9-0.962,2.855,1.699,2.289,3.15c-0.29,0.744-0.755,1.385-1.338,1.945
	C512.652,20.726,512.074,20.089,511.685,19.274z M550.635,21.951c-0.037,0.414-0.136,0.798-0.279,1.156
	c-1.097-0.503-2.158-1.092-3.173-1.772C547.875,19.624,550.891,19.075,550.635,21.951z"/>
<g>
</g>
<g>
</g>
<g>
</g>
<g>
</g>
<g>
</g>
<g>
</g>
</svg>
