<?xml version="1.0" encoding="utf-8"?>
<!-- Generator: Adobe Illustrator 23.1.1, SVG Export Plug-In . SVG Version: 6.00 Build 0)  -->
<svg version="1.1" id="圖層_1" xmlns="http://www.w3.org/2000/svg" xmlns:xlink="http://www.w3.org/1999/xlink" x="0px" y="0px"
	 viewBox="0 0 100 76.865" style="enable-background:new 0 0 100 76.865;" xml:space="preserve">
<style type="text/css">
	.st0{fill:#5A5A5A;}
</style>
<g>
	<g>
		<g>
			<path class="st0" d="M39.127,44.676c0.002-0.127,0.015-0.251,0.022-0.375C39.13,44.307,39.112,44.401,39.127,44.676z"/>
		</g>
		<g>
			<path class="st0" d="M66.164,25.164c-0.018,0.023-0.039,0.048-0.055,0.068C66.151,25.188,66.162,25.17,66.164,25.164z"/>
		</g>
		<g>
			<path class="st0" d="M40.257,30.953c0.001,0.008,0.001,0.013,0.002,0.019c0.006,0.029,0.014,0.064,0.02,0.09L40.257,30.953z"/>
		</g>
		<g>
			<path class="st0" d="M42.269,46.477c-0.273-0.002-0.497-0.018-0.663-0.058c-0.167-0.036-0.274-0.097-0.378-0.174
				c-0.2-0.141-0.33-0.389-0.428-0.68c-0.179-0.605-0.176-1.297-0.137-1.988c0.093-1.498,0.16-3.053,0.066-5.5
				c-0.033-2.34-0.227-4.832-0.47-7.104c-0.133-0.532-0.21-1.277-0.296-2.047c-0.043-0.385-0.09-0.775-0.142-1.15
				c-0.056-0.38-0.142-0.882-0.458-1.327c-0.118-0.253-0.314-0.497-0.518-0.672c-0.313-0.186-0.627-0.28-0.887-0.357
				c-0.266-0.076-0.469-0.136-0.629-0.227l0.031-0.018c-0.551-0.109-1.078-0.488-1.325-0.621l0.035-0.009
				c-0.184-0.136-0.371-0.27-0.542-0.426l0.115,0.05c-0.397-0.296-0.758-0.666-1.051-1.074c-0.293-0.409-0.52-0.85-0.683-1.28
				l-0.076,0.116c-0.331-0.946-0.457-1.603-0.536-2.265c-0.068-0.657-0.075-1.319,0.177-2.209l0.022,0.03
				c0.085-1.171,0.503-2.053,0.994-2.85c0.5-0.802,1.074-1.552,1.822-2.496c-0.189,0.233,0.133-0.047,0.135-0.009
				c0.382-0.393,0.825-0.735,1.166-0.988c0.342-0.251,0.582-0.427,0.543-0.532c0.365-0.166,0.528-0.196,0.606-0.193
				c0.079,0.004,0.081,0.043,0.142,0.069c-0.018-0.048,0.131-0.131,0.365-0.212c0.235-0.077,0.556-0.139,0.863-0.161l-0.278,0.062
				c0.29-0.037,0.583-0.048,0.874-0.039c0.291,0.016,0.579,0.054,0.862,0.116c-0.096-0.082-0.195-0.174-0.302-0.253
				c0.467,0.118,0.5,0.21,0.541,0.261c0.02,0.029,0.038,0.051,0.107,0.09c0.034,0.019,0.081,0.039,0.147,0.064
				c0.044,0.009,0.199,0.09,0.37,0.17l0.011-0.169c0.488,0.275,0.956,0.666,1.37,1.021l0.026-0.016l0.011-0.053l0.022-0.106
				c0.015-0.071,0.029-0.142,0.044-0.213c0.031-0.145,0.061-0.288,0.091-0.43c0.085-0.31,0.169-0.617,0.255-0.93
				c0.07-0.235,0.113-0.251,0.16-0.345c0.046-0.08,0.092-0.162,0.14-0.245c0.121-0.155,0.224-0.326,0.361-0.494
				c0.679-1.037,1.792-1.843,3.025-2.313c0.619-0.239,1.279-0.369,1.936-0.402c0.65-0.033,1.327,0.051,1.986,0.215
				c1.318,0.331,2.538,1.028,3.584,1.887c0.523,0.433,0.999,0.914,1.434,1.418c0.22,0.25,0.419,0.514,0.618,0.775
				c0.094,0.135,0.187,0.269,0.28,0.402l0.106,0.153l0.117,0.177l0.236,0.357l0.18,0.458c0.001,0.011,0.004,0.023,0.008,0.036
				l0.007,0.021c0.004,0.002,0.011,0.001,0.017,0.001c0.025,0,0.059-0.006,0.1-0.014c0.083-0.018,0.195-0.051,0.326-0.094
				c0.13-0.043,0.278-0.096,0.432-0.152c0.076-0.028,0.155-0.058,0.235-0.087c0.075-0.027,0.179-0.062,0.205-0.077
				c0.343-0.159,0.703-0.302,0.816-0.249c0.19-0.063,0.381-0.133,0.573-0.192c0.171,0.002,0.523-0.025,0.237,0.062
				c0.271-0.046,0.407-0.06,0.525-0.09c0.118-0.029,0.216-0.061,0.408-0.1l0.292,0.029l0.286,0.045
				c1.04,0.011,1.943,0.16,2.708,0.574c0.18,0.118,0.372,0.226,0.532,0.38c0.176,0.137,0.325,0.3,0.465,0.483
				c0.278,0.368,0.5,0.82,0.652,1.336c0.075,0.318,0.128,0.663,0.203,1.097c0.07,0.415,0.144,0.858,0.222,1.321
				c0.139,0.917,0.266,1.91,0.223,2.862c-0.02,0.475-0.082,0.939-0.202,1.361c-0.034,0.103-0.068,0.206-0.101,0.309
				c-0.042,0.096-0.085,0.192-0.126,0.288c-0.114,0.227-0.226,0.45-0.337,0.67c-0.223,0.44-0.433,0.853-0.649,1.217
				s-0.442,0.683-0.668,0.969c-0.624,0.813-1.494,1.537-2.413,2.226c-0.233,0.17-0.465,0.342-0.705,0.509l-0.361,0.25
				c-0.122,0.086-0.23,0.151-0.396,0.292c-0.312,0.241-0.552,0.577-0.72,0.917c-0.178,0.346-0.254,0.696-0.326,1.039
				c-0.112,0.681-0.107,1.323-0.094,1.932c0.016,0.606,0.045,1.186,0.02,1.703c-0.062,1.174-0.095,2.339-0.066,3.464
				c-0.029,0.145,0.01,0.526,0.029,0.524l-0.181,4.112c0,0-0.042,1.246-0.098,2.88c-0.01,0.408-0.022,0.841-0.033,1.284
				c-0.005,0.219-0.01,0.441-0.015,0.664c-0.006,0.21-0.018,0.399-0.048,0.557c-0.055,0.306-0.197,0.529-0.418,0.7
				c-0.219,0.175-0.537,0.286-0.86,0.343c-0.323,0.061-0.65,0.076-0.941,0.077c-0.291,0.003-0.549-0.008-0.755-0.013
				c-0.412-0.012-0.628,0.01-0.523,0.135c0.052,0.058,0.182,0.147,0.412,0.246c0.23,0.1,0.558,0.22,1.016,0.31
				c0.23,0.039,0.492,0.083,0.793,0.085s0.645-0.012,1.025-0.137c0.375-0.117,0.803-0.368,1.102-0.8
				c0.15-0.208,0.275-0.464,0.346-0.721c0.075-0.257,0.115-0.516,0.148-0.763l0.031,0.11c0.179-2.269,0.25-3.67,0.125-5.234
				c0.236-0.237,0.094-1.848,0.187-2.373l0.017,0.051c-0.122-1.38,0.253-2.823,0.147-4.153c0.016,0.052,0.077,0.083,0.069,0.387
				c0.004-0.483,0.006-1.054,0.024-1.514c0.011-0.245,0.02-0.459,0.027-0.619c0.01-0.159,0.029-0.262,0.061-0.282
				c-0.033-0.604-0.094-1.232-0.109-1.838c-0.013-0.599,0.034-1.185,0.211-1.577c0.094-0.19,0.188-0.355,0.338-0.469
				c0.02-0.018,0.026-0.03,0.056-0.053l0.088-0.07c0.058-0.046,0.116-0.092,0.173-0.137c0.113-0.091,0.224-0.18,0.331-0.267
				c0.426-0.352,0.789-0.676,1.049-0.953l-0.058,0.089c0.577-0.649,0.855-0.71,1.52-1.434c0.051-0.023,0.106-0.067,0.104-0.054
				c0.292-0.384,0.771-0.909,1.159-1.476c0.393-0.563,0.707-1.12,0.862-1.46h0.1l0.214-0.404c0.072-0.138,0.14-0.256,0.216-0.424
				c0.075-0.157,0.151-0.314,0.202-0.477c0.06-0.161,0.114-0.323,0.151-0.487c-0.064,0.243-0.165,0.481-0.266,0.715
				c-0.059-0.171,0.12-0.504,0.286-1.008c0.164-0.5,0.288-1.171,0.2-1.868c0.007-0.654-0.182-1.294-0.387-1.914
				c-0.205-0.622-0.428-1.231-0.503-1.875c-0.238-0.579,0.292,0.493,0.016-0.39c0.117-0.056,0.166,0.404,0.215,0.151
				c-0.12-0.44-0.189-0.835-0.305-1.241c-0.118-0.406-0.279-0.85-0.662-1.339l0.051-0.098c-0.545-0.622-1.137-1.125-1.753-1.473
				c-0.615-0.345-1.237-0.521-1.767-0.516c-0.202-0.012-0.369-0.026-0.511-0.043c-0.141-0.007-0.258-0.018-0.358-0.032
				c-0.201-0.031-0.336-0.056-0.475-0.082c-0.138-0.024-0.282-0.052-0.489-0.038c-0.209,0.008-0.485,0.045-0.883,0.15
				c-0.216-0.015-0.43-0.019-0.647-0.028c-0.686,0.116-0.456,0.252-1.21,0.366c0.006-0.023-0.05-0.024-0.131-0.015
				c-0.041,0.006-0.087,0.012-0.136,0.019c-0.035,0.004-0.034,0-0.053,0.001c-0.058-0.001-0.084-0.01-0.033-0.065
				c-0.024-0.002-0.045-0.002-0.066-0.002l-0.03,0.002c-0.011,0.003-0.013-0.018-0.02-0.025c-0.011-0.02-0.023-0.038-0.036-0.056
				l-0.019-0.026l-0.01-0.012c0.012,0.015-0.014-0.017-0.031-0.038c-0.277-0.358-0.581-0.708-0.911-1.058
				c-0.662-0.7-1.409-1.403-2.283-2.198c-0.259-0.081-0.606-0.318-0.965-0.516c-0.174-0.105-0.351-0.2-0.51-0.27
				c-0.158-0.072-0.292-0.129-0.392-0.142c-0.015-0.041-0.545-0.311-0.943-0.461c-0.194-0.086-0.352-0.144-0.377-0.168
				c-0.026-0.022,0.089-0.028,0.417,0.062c0.113,0.03,0.305,0.106,0.282,0.127c0.062-0.01,0.127-0.022,0.188-0.028
				c-0.603-0.344-1.223-0.526-1.853-0.605c-0.155-0.028-0.315-0.035-0.473-0.048c-0.16-0.008-0.314-0.03-0.481-0.029
				c-0.332-0.001-0.667-0.016-1.016,0.003c0.415-0.003,0.965,0.049,0.595,0.087c-0.215-0.023-0.428-0.005-0.643-0.002
				c-0.215-0.001-0.427,0.024-0.638,0.052l0.256-0.115c-0.319,0.034-0.641,0.06-0.954,0.134c-0.318,0.053-0.624,0.148-0.932,0.239
				l0.283,0.015c-0.889,0.249-1.295,0.232-2.123,0.928C45.226,5.986,46.398,5.3,45.59,5.856c-0.524,0.329-1.159,0.801-1.707,1.452
				c-0.13,0.168-0.262,0.339-0.391,0.515l-0.336,0.568c-0.097,0.198-0.181,0.405-0.267,0.606c0.008-0.032-0.004,0.005-0.008,0.012
				l-0.016,0.037c0.096,0.065,0.071,0.146,0.078,0.289l-0.07-0.133c0.002,0.014,0.004,0.028-0.001,0.024
				c-0.036-0.002-0.082-0.03-0.106-0.06c-0.026-0.03-0.037-0.066-0.043-0.1c-0.007-0.034-0.009-0.065-0.015-0.084
				c-0.006-0.004,0.011,0-0.014-0.011c-0.022-0.009-0.045-0.019-0.069-0.029c-0.05-0.019-0.106-0.04-0.169-0.064
				c-0.123-0.047-0.306-0.089-0.519-0.134c0.057-0.012,0.114-0.016,0.173-0.024c-0.173,0.017-0.344,0.059-0.509,0.09
				c-0.795-0.037-0.993-0.054-1.229-0.107c-0.116-0.015-0.241-0.039-0.442-0.018s-0.483,0.067-0.891,0.224
				c0.332-0.079,0.42-0.028,0.321,0.036c-0.099,0.069-0.375,0.165-0.772,0.258c0.057-0.051,0.116-0.097,0.175-0.146
				c-0.438,0.14-0.563,0.24-0.849,0.33c0.235-0.139,0.073-0.198-0.525,0.11c0.114-0.106,0.237-0.201,0.36-0.3
				c-0.374,0.222-0.718,0.477-1.037,0.75c-0.435,0.215-0.927,0.602-1.319,0.978c-0.395,0.375-0.707,0.725-0.881,0.832
				c0,0-0.345,0.376-0.668,0.838c-0.322,0.462-0.628,1.005-0.667,1.246c0.058-0.199-0.054-0.061-0.174,0.089
				c-0.122,0.148-0.237,0.317-0.215,0.148c-0.073,0.261-0.263,0.747-0.428,1.255c-0.17,0.506-0.333,1.025-0.455,1.32l0.016-0.119
				c-0.343,1.117-0.391,2.149-0.301,3.123c0.044,0.489,0.133,0.964,0.242,1.451c0.124,0.481,0.26,0.968,0.445,1.472
				c0.047-0.124,0.497,0.902,0.503,0.584c0.575,0.916,1.167,1.71,1.773,2.281c0.6,0.572,1.209,0.896,1.657,0.862
				c0.226,0.1,0.404,0.181,0.557,0.241c0.151,0.064,0.273,0.126,0.374,0.171c0.176,0.088,0.309,0.154,0.499,0.248l-0.174-0.037
				c0.359,0.107,0.492,0.205,0.561,0.291c0.077,0.094,0.135,0.266,0.172,0.465c0.037,0.196,0.063,0.441,0.093,0.683
				c0.028,0.246,0.058,0.508,0.093,0.818c0.113,0.613,0.334,0.688,0.393,1.806c-0.116-0.352-0.059,0.101-0.02,0.517
				c-0.037-0.265-0.075-0.344-0.081,0.207c0.033,0.075,0.059,0.192,0.081,0.302c-0.006,0.005-0.009,0.027-0.019,0.017
				c0.086,0.692,0.102,0.569,0.087,0.246c0.014,0.015,0.028-0.013,0.043-0.115c-0.042,0.729,0.155,2.012,0.017,2.108
				c0.16,2.088,0.346,3.582,0.419,5.329c-0.072,0.197-0.14-0.211-0.175-0.717l0.036,1.237c-0.105-0.01-0.061-0.711-0.09-1.091
				c-0.15,1.479,0.172,3.019-0.035,4.781c0.026,0.126,0.056,0.252,0.088,0.378l-0.011,0.11c0.044-0.007,0.121,0.4,0.173,0.67
				c-0.028,0.136-0.083,0.139-0.11,0.224c-0.021,0.086-0.043,0.253,0.103,0.733c0.034,0.196,0.122,0.433,0.258,0.684
				c0.146,0.247,0.344,0.513,0.62,0.722c0.274,0.205,0.595,0.361,0.917,0.432c0.318,0.072,0.607,0.076,0.851,0.073
				c-0.264-0.018-0.361-0.052-0.352-0.069c0.007-0.018,0.113-0.027,0.227-0.036c0.471,0.018,0.705,0.093,1.037,0.057l0.042,0.124
				c-0.169-0.12,1.117-0.126,1.276-0.173c0.243,0.094-0.665,0.074-0.772,0.143c1.715,0.002,0.857-0.002,2.574,0.021
				c0.919-0.069-0.164-0.123,0.278-0.219c0.811-0.001,1.605-0.062,2.534,0.048l-0.291-0.121c1.528-0.028,2.44,0.022,3.464,0.169
				c2.852-0.123,4.423-0.312,5.175-0.474c0.754-0.161,0.698-0.288,0.286-0.38c-0.408-0.094-1.167-0.162-1.824-0.214
				c-0.657-0.054-1.213-0.086-1.213-0.086c-2.217-0.172-3.909-0.233-5.717-0.238C46.88,46.39,44.945,46.414,42.269,46.477z"/>
		</g>
	</g>
	<g>
		<g>
			<path class="st0" d="M42.606,42.557l0.053,0.047C42.659,42.583,42.646,42.564,42.606,42.557z"/>
		</g>
		<g>
			<path class="st0" d="M56.35,42.913c0.004-0.004,0.009-0.006,0.013-0.01C56.354,42.907,56.351,42.91,56.35,42.913z"/>
		</g>
		<g>
			<path class="st0" d="M44.675,44.157h-0.003c-0.005,0.005-0.01,0.007-0.014,0.011L44.675,44.157z"/>
		</g>
		<g>
			<path class="st0" d="M41.908,43.957c0.725,0.075,0.912,0.294,1.668,0.228c0.359,0.027,0.744-0.012,1.096-0.028
				c0.171-0.162,0.461,0.01,0.662-0.124l0.074,0.096c0.069-0.046,0.15-0.076,0.217-0.023l-0.005,0.027
				c0.103-0.069,0.217-0.023,0.268-0.057l-0.005,0.028l0.124-0.009l-0.022,0.039c0.179-0.071,0.362-0.071,0.522-0.032l-0.01-0.115
				c0.34,0.137,0.473-0.096,0.779,0.064l-0.005,0.028c0.4-0.291,0.615,0.222,1.027-0.053c-0.051,0.034,0.02,0.059,0.015,0.087
				c0.187-0.028,0.386-0.039,0.395-0.264c0.136,0.007,0.109,0.073,0.124,0.16c0.002-0.098,0.121-0.136,0.227-0.139l-0.05,0.037
				l0.305-0.025l-0.055-0.187c0.16,0.058,0.035,0.227,0.19,0.187l0.002-0.154c0.222,0.036,0.346,0.273,0.559,0.392
				c0.894,0.09,1.867-0.276,2.693,0.017l0.034,0.117c0.011,0.169,0.237-0.244,0.264-0.087l0.099-0.074
				c0.026,0.031,0.083,0.065,0.034,0.101c0.089,0.009,0.092-0.019,0.158-0.068l0.093,0.108c0.352,0.091,0.658-0.103,1.029-0.052
				c0.441,0.226,1.288,0.052,1.776-0.049c0.688-0.234,1.463,0.46,2.169,0.19c0.022,0.025,0.082-0.028,0.082-0.047l0.638,0.041
				c0,0,0.193,0.009,0.447,0c0.127-0.004,0.269-0.013,0.41-0.03c0.08-0.011,0.16-0.022,0.239-0.033
				c0.119-0.022,0.28-0.038,0.493-0.189c0.104-0.077,0.2-0.197,0.246-0.326c0.044-0.106,0.057-0.229,0.038-0.335
				c-0.018-0.105-0.059-0.185-0.099-0.242c-0.084-0.115-0.168-0.163-0.25-0.198c-0.084-0.033-0.174-0.052-0.283-0.043
				c-0.117,0.006-0.269,0.075-0.343,0.183c-0.033,0.047-0.05,0.095-0.059,0.136c-0.003,0.032-0.001,0.059,0.003,0.081
				c0.008,0.053,0.033,0.044,0.053,0.051c0.021,0.004,0.044,0.006,0.068,0.004c0.029-0.017,0.054-0.036,0.101-0.062
				c0.042-0.026,0.114-0.03,0.144,0.001c0.033,0.028,0.043,0.066,0.043,0.102c0,0.018-0.004,0.036-0.014,0.05
				c-0.001,0.005-0.019,0.016-0.01,0.012c0.005-0.004,0.018-0.007,0.021-0.008c0.008-0.001,0.008-0.001,0.01-0.001
				c0,0-0.005-0.001-0.006-0.002l-0.068-0.033l0.002,0.001c0.008,0.004,0.002,0.003-0.01-0.013c-0.012-0.016-0.03-0.047-0.047-0.098
				l-0.014-0.043c-0.004-0.009-0.008-0.018-0.013-0.027c-0.023-0.071-0.188-0.161-0.322-0.251l0.017-0.036
				c-0.347-0.099-0.567-0.125-0.813,0.054c-0.032-0.228-0.287-0.031-0.366-0.107l0.008-0.018c-0.218,0.169-0.435-0.157-0.645-0.006
				c0.008-0.018,0.015-0.08,0.062-0.082c-0.151,0.025-0.357,0.069-0.364-0.063c-0.359,0.025-0.856-0.05-1.091,0.155l0.017-0.036
				c-0.134,0.139-0.17,0.017-0.318,0.085c-0.007-0.018-0.018-0.027-0.016-0.034c-0.146,0.137-0.416,0.011-0.532,0.067l-0.005-0.088
				l-0.284,0.013l0.105,0.022c-0.043,0.24-0.21-0.157-0.42-0.006c-0.191-0.036-0.404,0.49-0.6,0.367
				c-0.098,0.11,0.089-0.181-0.056-0.098c-0.001-0.126,0.069-0.077,0.035-0.178c-0.141,0.056-0.226-0.135-0.401-0.054l-0.004-0.098
				c-0.23,0.173-0.421-0.14-0.575,0.026c-0.234,0.074-0.148-0.295-0.394-0.11l-0.09-0.135c-0.103-0.024-0.078,0.16-0.191,0.093
				c0.009-0.083-0.143-0.07-0.074-0.148c-0.256-0.137-0.532,0.171-0.867-0.059c-0.079,0.16-0.248,0.059-0.307,0.179
				c-0.007-0.071-0.344-0.021-0.147-0.169c0.017-0.012,0.046-0.009,0.043,0.019l0.026-0.096c-0.19-0.187-0.357,0.09-0.549,0.057
				c0.056,0.033,0.133,0.027,0.08,0.092l-0.179-0.018l0.039-0.08l-0.266-0.055l0.034,0.101c-0.129-0.055-0.17-0.227-0.322-0.088
				c-0.069,0.078,0.12,0.138-0.019,0.166c-0.171-0.076-0.43-0.186-0.652-0.222c0.018,0.114-0.042,0.108-0.104,0.129l-0.004-0.098
				c-0.24,0.13-0.081-0.218-0.318-0.116l0.023-0.068l-0.068,0.203c-0.217,0.188-0.109-0.206-0.351,0.052
				c0.093-0.014,0.038,0.217-0.075,0.171l0.032-0.094c-0.064,0.018-0.086,0.057-0.128,0.036c0.039-0.05,0.024-0.137-0.07-0.123
				l0.066-0.117L48.6,42.56c-0.133-0.105-0.352,0.016-0.405-0.119c0,0-0.291-0.073-0.362,0.071c0.061-0.089-0.099-0.128-0.05-0.233
				c-0.079,0.101-0.305,0.179-0.391,0.067l0.017-0.012c-0.328-0.121-0.571,0.138-0.865-0.006c0.01,0.114-0.145,0.048-0.11,0.194
				c-0.312,0.135-0.553-0.311-0.676,0.135c-0.141,0.02-0.163-0.11-0.235-0.135l0.034-0.023c-0.263,0.03-0.339,0.032-0.534,0.016
				c-0.098,0.041-0.119,0.249-0.292,0.194c0.059-0.081-0.013-0.068-0.078-0.07c0.042-0.012,0.056-0.042-0.028-0.1
				c-0.013,0.025-0.032,0.041-0.05,0.053c-0.001-0.007-0.004-0.012-0.002-0.021c-0.11,0.026-0.091,0.053-0.041,0.065
				c-0.003,0.013,0.001,0.029,0.016,0.052c-0.11-0.11-0.315-0.001-0.325-0.144c-0.328,0.024-0.566,0.165-0.839,0.213
				c-0.029-0.074,0.037-0.137,0.117-0.164l-0.194,0.022c0.005-0.105,0.113-0.058,0.173-0.077c-0.225-0.177-0.479,0.157-0.744-0.006
				l-0.058,0.082L42.662,42.6c0,0.044-0.062,0.103-0.103,0.116c-0.036-0.093,0.008-0.212-0.125-0.21
				c-0.103-0.092-0.301,0.036-0.441,0.082c0.074,0.018,0.049,0.068,0.016,0.099c-0.067,0.001-0.103-0.092-0.155-0.053l-0.003-0.124
				c0.023,0.118-0.178,0.121-0.204,0.171c-0.035-0.093,0.106-0.076,0.124-0.145c-0.268,0.004-0.134,0.002-0.402,0.006
				c-0.145,0.09,0.023,0.118-0.048,0.225c-0.127,0.021-0.252,0.104-0.395,0.025l0.043,0.111c-0.239,0.079-0.381,0.062-0.537-0.053
				c-0.122,0.058-0.229,0.113-0.32,0.167l0.008,0.082c1.076-1.016-0.167-1.038-0.167-1.038c-0.021-0.003-0.042-0.005-0.06-0.007
				l0.19,2.033C40.734,44.313,41.103,44.018,41.908,43.957z"/>
		</g>
	</g>
	<g>
		<g>
			<path class="st0" d="M42.012,39.241l0.039-0.049C42.031,39.195,42.014,39.208,42.012,39.241z"/>
		</g>
		<g>
			<path class="st0" d="M40.89,28.381c-0.004-0.003-0.006-0.007-0.011-0.01C40.883,28.379,40.887,28.381,40.89,28.381z"/>
		</g>
		<g>
			<path class="st0" d="M43.314,37.379v0.002c0.005,0.003,0.008,0.007,0.013,0.009L43.314,37.379z"/>
		</g>
		<g>
			<path class="st0" d="M43.491,39.551c-0.029-0.573,0.163-0.753-0.006-1.326c-0.02-0.282-0.109-0.573-0.171-0.844
				c-0.183-0.108-0.048-0.359-0.206-0.495l0.086-0.071c-0.054-0.047-0.094-0.105-0.05-0.165h0.028c-0.081-0.07-0.05-0.165-0.09-0.2
				h0.028l-0.024-0.095l0.041,0.012c-0.093-0.129-0.114-0.271-0.095-0.4l-0.112,0.024c0.095-0.284-0.152-0.354-0.03-0.614h0.028
				c-0.336-0.272,0.15-0.507-0.169-0.792c0.04,0.036,0.057-0.023,0.085-0.023c-0.048-0.142-0.082-0.296-0.306-0.274
				c-0.009-0.107,0.061-0.094,0.145-0.117c-0.098,0.011-0.148-0.077-0.162-0.16l0.042,0.034l-0.057-0.234l-0.18,0.066
				c0.04-0.132,0.222-0.055,0.165-0.171l-0.153,0.017c0.012-0.178,0.234-0.303,0.33-0.483c-0.003-0.706-0.461-1.427-0.246-2.104
				l0.113-0.038c0.167-0.026-0.263-0.16-0.11-0.198l-0.083-0.07c0.028-0.024,0.057-0.071,0.098-0.037
				c0.001-0.071-0.027-0.07-0.081-0.117l0.099-0.084c0.06-0.283-0.162-0.504-0.14-0.799c0.188-0.366-0.053-1.012-0.189-1.386
				c-0.286-0.522,0.353-1.181,0.038-1.714c0.023-0.019-0.033-0.063-0.052-0.061l0.001-0.503c0,0-0.009-0.609-0.181-0.981
				c-0.173-0.371-0.512-0.512-1.176,0.448l-0.037-0.011c-0.079,0.281-0.092,0.457,0.103,0.641c-0.225,0.04-0.013,0.229-0.083,0.297
				l-0.019-0.005c0.182,0.161-0.129,0.356,0.035,0.512c-0.018-0.005-0.081-0.006-0.086-0.043c0.035,0.118,0.094,0.278-0.037,0.293
				c0.05,0.282,0.009,0.683,0.231,0.853l-0.037-0.01c0.148,0.095,0.029,0.133,0.109,0.244c-0.017,0.007-0.025,0.016-0.033,0.015
				c0.147,0.104,0.042,0.328,0.108,0.415l-0.087,0.011l0.034,0.223l0.014-0.085c0.242,0.013-0.141,0.18,0.027,0.332
				c-0.02,0.155,0.521,0.275,0.415,0.44c0.118,0.067-0.188-0.053-0.093,0.053c-0.125,0.013-0.082-0.047-0.18-0.011
				c0.067,0.106-0.115,0.191-0.021,0.321l-0.097,0.013c0.192,0.165-0.103,0.346,0.077,0.452c0.095,0.177-0.28,0.146-0.074,0.322
				l-0.126,0.085c-0.015,0.084,0.166,0.046,0.109,0.142c-0.084,0.001-0.057,0.12-0.141,0.073c-0.113,0.217,0.22,0.402,0.023,0.692
				c0.167,0.045,0.082,0.19,0.207,0.223c-0.07,0.013,0.012,0.274-0.154,0.135c-0.014-0.012-0.013-0.036,0.014-0.036l-0.097-0.01
				c-0.168,0.171,0.126,0.272,0.112,0.427c0.028-0.048,0.013-0.108,0.083-0.073v0.143l-0.084-0.022l-0.027,0.216l0.097-0.039
				c-0.042,0.108-0.208,0.161-0.055,0.264c0.084,0.045,0.125-0.111,0.167-0.005c-0.056,0.145-0.138,0.362-0.149,0.542
				c0.111-0.028,0.111,0.02,0.139,0.067l-0.097,0.015c0.155,0.174-0.208,0.09-0.081,0.266l-0.07-0.009l0.209,0.028
				c0.21,0.148-0.193,0.112,0.09,0.27c-0.024-0.072,0.211-0.057,0.178,0.038l-0.096-0.013c0.025,0.048,0.066,0.061,0.05,0.096
				c-0.054-0.024-0.139-0.001-0.114,0.071l-0.123-0.037l0.188,0.121c-0.089,0.118,0.056,0.275-0.072,0.334
				c0,0-0.04,0.239,0.112,0.276c-0.095-0.036-0.116,0.095-0.226,0.071c0.109,0.049,0.212,0.216,0.112,0.299l-0.014-0.012
				c-0.08,0.275,0.205,0.431,0.098,0.682c0.112-0.024,0.065,0.107,0.206,0.059c0.17,0.225-0.239,0.479,0.218,0.512
				c0.038,0.107-0.088,0.144-0.104,0.204l-0.027-0.023c0.063,0.202,0.074,0.262,0.083,0.417c0.053,0.071,0.261,0.056,0.23,0.2
				c-0.088-0.034-0.065,0.02-0.059,0.072c-0.017-0.031-0.049-0.037-0.095,0.037c0.027,0.006,0.044,0.019,0.059,0.031
				c-0.006,0.001-0.011,0.005-0.02,0.005c0.041,0.082,0.064,0.064,0.07,0.022c0.013,0,0.028-0.005,0.05-0.02
				c-0.094,0.103,0.04,0.247-0.1,0.276c0.068,0.253,0.237,0.418,0.322,0.624c-0.069,0.034-0.141-0.007-0.178-0.065l0.048,0.148
				c-0.105,0.013-0.073-0.079-0.1-0.123c-0.143,0.205,0.222,0.349,0.097,0.583l0.089,0.032l-0.012,0.015
				c0.044-0.007,0.11,0.032,0.128,0.061c-0.087,0.043-0.21,0.028-0.19,0.132c-0.076,0.096,0.078,0.23,0.143,0.331
				c0.007-0.061,0.06-0.049,0.096-0.029c0.011,0.052-0.075,0.096-0.03,0.13l-0.122,0.023c0.113-0.038,0.145,0.118,0.198,0.13
				c-0.086,0.043-0.09-0.07-0.161-0.072c0.043,0.209,0.021,0.104,0.064,0.313c0.109,0.098,0.113-0.038,0.229-0.001
				c0.039,0.095,0.139,0.179,0.082,0.303l0.103-0.053c0.113,0.172,0.119,0.285,0.028,0.427c0.552,0.62,0.866,0.641,1.042,0.511
				c0.176-0.13,0.214-0.413,0.214-0.413C44.031,40.41,43.672,40.182,43.491,39.551z"/>
		</g>
	</g>
	<g>
		<g>
			<path class="st0" d="M48.188,39.389l0.045-0.036C48.212,39.354,48.194,39.363,48.188,39.389z"/>
		</g>
		<g>
			<path class="st0" d="M47.784,30.322c-0.004-0.003-0.006-0.006-0.011-0.008C47.777,30.32,47.78,30.321,47.784,30.322z"/>
		</g>
		<g>
			<path class="st0" d="M49.688,37.945v0.002c0.005,0.003,0.007,0.006,0.012,0.009L49.688,37.945z"/>
		</g>
		<g>
			<path class="st0" d="M49.608,39.825c0.056-0.497,0.267-0.636,0.166-1.145c0.01-0.244-0.05-0.5-0.086-0.733
				c-0.171-0.104-0.016-0.307-0.161-0.431l0.092-0.055c-0.05-0.043-0.084-0.094-0.035-0.142l0.028,0.002
				c-0.074-0.064-0.035-0.142-0.073-0.173l0.028,0.002l-0.016-0.081l0.04,0.012c-0.081-0.114-0.091-0.234-0.062-0.342l-0.114,0.014
				c0.117-0.233-0.123-0.306,0.019-0.518l0.028,0.002c-0.313-0.246,0.187-0.419-0.111-0.674c0.037,0.032,0.058-0.017,0.086-0.015
				c-0.038-0.122-0.061-0.252-0.285-0.244c-0.001-0.09,0.067-0.076,0.153-0.092c-0.098,0.005-0.143-0.071-0.152-0.141l0.039,0.031
				l-0.042-0.199l-0.184,0.048c0.049-0.109,0.225-0.037,0.175-0.137l-0.154,0.008c0.024-0.149,0.253-0.245,0.36-0.393
				c0.039-0.595-0.382-1.214-0.136-1.777l0.114-0.03c0.168-0.018-0.257-0.141-0.101-0.169l-0.08-0.061
				c0.029-0.019,0.06-0.059,0.099-0.029c0.004-0.06-0.024-0.06-0.077-0.1l0.102-0.068c0.071-0.238-0.141-0.427-0.111-0.675
				c0.201-0.305-0.021-0.853-0.15-1.168c-0.272-0.439,0.376-0.994,0.067-1.442c0.023-0.016-0.032-0.053-0.052-0.051l0.005-0.423
				c0,0-0.028-2.051-1.355-0.432l-0.037-0.009c-0.079,0.235-0.092,0.382,0.1,0.533c-0.225,0.035-0.015,0.191-0.086,0.248
				l-0.019-0.004c0.181,0.133-0.132,0.297,0.03,0.426c-0.018-0.004-0.081-0.005-0.086-0.036c0.033,0.098,0.09,0.231-0.042,0.244
				c0.045,0.235-0.001,0.568,0.216,0.71l-0.037-0.009c0.146,0.08,0.026,0.111,0.103,0.204c-0.017,0.006-0.026,0.013-0.033,0.013
				c0.145,0.088,0.034,0.274,0.098,0.347l-0.087,0.009l0.029,0.186l0.016-0.071c0.242,0.013-0.145,0.148,0.018,0.277
				c-0.025,0.129,0.512,0.235,0.4,0.373c0.116,0.058-0.186-0.047-0.095,0.043c-0.125,0.009-0.081-0.04-0.18-0.012
				c0.064,0.09-0.121,0.157-0.031,0.268l-0.098,0.009c0.185,0.141-0.116,0.286,0.059,0.378c0.088,0.15-0.286,0.116-0.087,0.267
				l-0.13,0.068c-0.018,0.069,0.164,0.042,0.104,0.12c-0.084-0.001-0.062,0.099-0.143,0.058c-0.123,0.177,0.201,0.34-0.009,0.576
				c0.164,0.042,0.073,0.16,0.196,0.191c-0.07,0.009-0.001,0.228-0.16,0.108c-0.013-0.01-0.012-0.03,0.016-0.03L47.6,33.478
				c-0.176,0.137,0.111,0.23,0.088,0.358c0.03-0.039,0.019-0.089,0.087-0.058l-0.008,0.119l-0.082-0.021l-0.039,0.179l0.099-0.029
				c-0.048,0.089-0.217,0.127-0.07,0.218c0.081,0.04,0.131-0.088,0.167,0.002c-0.063,0.118-0.158,0.296-0.182,0.445
				c0.112-0.019,0.11,0.021,0.135,0.061l-0.098,0.009c0.143,0.15-0.213,0.067-0.098,0.217l-0.069-0.011l0.207,0.032
				c0.2,0.131-0.2,0.085,0.072,0.228c-0.019-0.061,0.215-0.039,0.175,0.039l-0.095-0.015c0.022,0.041,0.062,0.053,0.044,0.082
				c-0.052-0.023-0.138-0.007-0.119,0.054l-0.12-0.036l0.179,0.109c-0.097,0.095,0.036,0.231-0.095,0.274
				c0,0-0.057,0.196,0.091,0.234c-0.092-0.035-0.122,0.073-0.23,0.048c0.105,0.045,0.196,0.19,0.089,0.254l-0.013-0.011
				c-0.102,0.224,0.17,0.368,0.043,0.571c0.113-0.014,0.056,0.093,0.2,0.06c0.153,0.197-0.279,0.384,0.174,0.437
				c0.028,0.091-0.1,0.114-0.121,0.163l-0.025-0.021c0.045,0.172,0.051,0.222,0.047,0.351c0.047,0.062,0.256,0.063,0.21,0.18
				c-0.085-0.034-0.067,0.013-0.065,0.056c-0.014-0.027-0.045-0.034-0.098,0.025c0.026,0.007,0.042,0.018,0.056,0.029
				c-0.007,0.001-0.011,0.003-0.02,0.002c0.032,0.07,0.058,0.057,0.068,0.023c0.013,0.001,0.029-0.002,0.051-0.014
				c-0.104,0.079,0.016,0.206-0.126,0.221c0.041,0.213,0.194,0.36,0.254,0.537c-0.073,0.022-0.139-0.018-0.169-0.068l0.03,0.125
				c-0.106,0.002-0.063-0.071-0.085-0.109c-0.167,0.154,0.178,0.305,0.024,0.483l0.084,0.035l-0.014,0.011
				c0.044-0.001,0.105,0.038,0.119,0.063c-0.092,0.026-0.212,0-0.206,0.087c-0.088,0.069,0.045,0.193,0.094,0.283
				c0.016-0.048,0.067-0.032,0.099-0.011c0.003,0.043-0.089,0.068-0.05,0.101l-0.124,0.003c0.117-0.016,0.125,0.114,0.175,0.131
				c-0.092,0.023-0.078-0.068-0.147-0.08c0.008,0.172,0.004,0.086,0.012,0.258c0.091,0.095,0.118-0.014,0.225,0.034
				c0.022,0.082,0.105,0.166,0.027,0.257l0.111-0.025c0.078,0.159,0.061,0.252-0.057,0.349c0.016,0.023,0.032,0.046,0.048,0.063
				l0.305-0.076c-1.295-0.457-1.095,0.463-1.095,0.463c0.005,0.075,0.018,0.139,0.037,0.196l0.986,2.993l1.011-3.49
				C49.91,40.581,49.676,40.311,49.608,39.825z"/>
		</g>
	</g>
	<g>
		<g>
			<path class="st0" d="M55.842,41.261l0.049-0.042C55.871,41.218,55.852,41.228,55.842,41.261z"/>
		</g>
		<g>
			<path class="st0" d="M55.824,29.608c-0.004-0.003-0.006-0.007-0.011-0.01C55.818,29.606,55.821,29.608,55.824,29.608z"/>
		</g>
		<g>
			<path class="st0" d="M57.505,39.559v0.002c0.005,0.004,0.006,0.009,0.011,0.013L57.505,39.559z"/>
		</g>
		<g>
			<path class="st0" d="M57.209,41.943c0.109-0.621,0.335-0.773,0.295-1.431c0.038-0.31,0.009-0.645,0.001-0.95
				c-0.159-0.153,0.018-0.399-0.113-0.577l0.098-0.062c-0.045-0.061-0.073-0.131-0.02-0.188l0.027,0.005
				c-0.068-0.091-0.021-0.188-0.055-0.233l0.027,0.005l-0.008-0.107l0.038,0.02c-0.07-0.156-0.068-0.314-0.028-0.452l-0.115,0.008
				c0.137-0.293-0.097-0.409,0.062-0.673l0.028,0.004c-0.292-0.345,0.216-0.533-0.063-0.887c0.035,0.044,0.059-0.018,0.087-0.014
				c-0.03-0.161-0.047-0.334-0.271-0.338c0.004-0.117,0.071-0.095,0.158-0.109c-0.098,0-0.139-0.102-0.144-0.193l0.038,0.042
				l-0.032-0.262l-0.186,0.051c0.054-0.138,0.227-0.035,0.182-0.168l-0.154,0.002c0.029-0.191,0.262-0.305,0.375-0.492
				c0.06-0.778-0.349-1.598-0.108-2.325l0.114-0.036c0.168-0.021-0.257-0.189-0.102-0.222l-0.08-0.08
				c0.029-0.025,0.059-0.076,0.099-0.036c0.003-0.078-0.025-0.078-0.079-0.132l0.101-0.088c0.066-0.31-0.147-0.559-0.126-0.882
				c0.193-0.399-0.053-1.114-0.201-1.521c-0.15-0.284-0.069-0.606,0-0.939c0.069-0.332,0.126-0.684-0.069-0.98
				c0.02-0.025-0.042-0.069-0.061-0.066c-0.023-0.194-0.056-0.391-0.093-0.588c0,0-0.037-0.18-0.122-0.409
				c-0.085-0.229-0.226-0.506-0.397-0.684c-0.169-0.18-0.356-0.255-0.503-0.13c-0.156,0.123-0.257,0.442-0.437,0.981l-0.038,0.001
				c0.003,0.278,0.022,0.437,0.247,0.579c-0.215,0.079,0.025,0.225-0.035,0.305l-0.019-0.003c0.204,0.136-0.084,0.366,0.093,0.507
				c-0.019-0.004-0.081,0.001-0.09-0.037c0.045,0.115,0.115,0.276-0.016,0.3c0.069,0.284,0.044,0.707,0.269,0.885l-0.038-0.01
				c0.151,0.099,0.033,0.141,0.115,0.259c-0.017,0.008-0.025,0.018-0.032,0.017c0.15,0.109,0.051,0.35,0.117,0.443l-0.087,0.013
				l0.037,0.238l0.012-0.091c0.243,0.014-0.138,0.192,0.03,0.355c-0.018,0.164,0.521,0.299,0.414,0.477
				c0.117,0.074-0.187-0.06-0.093,0.056c-0.125,0.011-0.082-0.052-0.18-0.015c0.067,0.115-0.117,0.202-0.023,0.343l-0.097,0.011
				c0.19,0.181-0.111,0.366,0.066,0.485c0.09,0.193-0.284,0.145-0.083,0.341l-0.129,0.085c-0.018,0.088,0.165,0.056,0.104,0.156
				c-0.084-0.003-0.062,0.125-0.143,0.072c-0.123,0.224,0.204,0.439-0.01,0.735c0.164,0.058,0.071,0.206,0.194,0.25
				c-0.07,0.01-0.004,0.292-0.162,0.132c-0.013-0.014-0.011-0.039,0.016-0.038l-0.097-0.017c-0.177,0.169,0.108,0.297,0.082,0.461
				c0.031-0.049,0.022-0.113,0.089-0.071l-0.011,0.152l-0.082-0.03l-0.044,0.226l0.1-0.033c-0.05,0.111-0.22,0.152-0.075,0.275
				c0.08,0.056,0.133-0.106,0.167,0.01c-0.066,0.149-0.169,0.371-0.198,0.559c0.113-0.018,0.109,0.033,0.132,0.085l-0.098,0.006
				c0.137,0.2-0.215,0.073-0.107,0.272l-0.068-0.018l0.205,0.053c0.193,0.18-0.204,0.096,0.06,0.296
				c-0.016-0.079,0.216-0.036,0.173,0.061l-0.094-0.025c0.02,0.054,0.059,0.072,0.039,0.108c-0.051-0.032-0.138-0.018-0.122,0.061
				l-0.118-0.054l0.173,0.151c-0.101,0.114,0.022,0.298-0.112,0.343c0,0-0.07,0.246,0.075,0.306
				c-0.09-0.051-0.127,0.084-0.233,0.043c0.101,0.066,0.183,0.257,0.07,0.33l-0.012-0.015c-0.12,0.277,0.14,0.483-0.004,0.73
				c0.114-0.008,0.047,0.123,0.194,0.095c0.133,0.266-0.314,0.463,0.131,0.576c0.02,0.12-0.111,0.136-0.137,0.196l-0.022-0.029
				c0.026,0.224,0.027,0.288,0.008,0.453c0.04,0.085,0.247,0.109,0.19,0.254c-0.081-0.052-0.068,0.009-0.071,0.064
				c-0.011-0.036-0.041-0.049-0.101,0.021c0.025,0.012,0.04,0.028,0.052,0.044c-0.007,0-0.012,0.003-0.021,0.001
				c0.024,0.094,0.05,0.079,0.064,0.037c0.013,0.003,0.029,0,0.053-0.012c-0.113,0.089-0.009,0.267-0.152,0.27
				c0.016,0.279,0.151,0.487,0.189,0.722c-0.075,0.021-0.136-0.038-0.16-0.107l0.015,0.165c-0.105-0.009-0.054-0.098-0.071-0.15
				c-0.185,0.182,0.141,0.414-0.032,0.63l0.079,0.054l-0.015,0.013c0.044,0.003,0.1,0.059,0.111,0.094
				c-0.094,0.025-0.211-0.019-0.215,0.094c-0.096,0.082,0.023,0.257,0.063,0.379c0.021-0.062,0.07-0.037,0.1-0.007
				c-0.002,0.057-0.096,0.081-0.06,0.128l-0.124-0.006c0.026-0.003,0.046,0.004,0.062,0.016l1.058-0.035
				c-0.063-0.02-0.091-0.112-0.131-0.123c0.088-0.038,0.087,0.068,0.159,0.07c-0.035-0.192-0.02-0.095-0.045-0.289
				c-0.098-0.102-0.116,0.025-0.227-0.022c-0.028-0.096-0.115-0.198-0.035-0.31l-0.112,0.032c-0.077-0.197-0.048-0.321,0.081-0.43
				c-0.163-0.389-0.264-0.662-0.377-0.817c-0.111-0.156-0.232-0.187-0.342-0.17c-0.113,0.028-0.22,0.125-0.294,0.218
				c-0.074,0.093-0.116,0.181-0.116,0.181c-0.198,0.322-0.223,0.615-0.185,0.906c0.039,0.293,0.139,0.589,0.248,0.971l1.705-0.057
				C57.213,42.011,57.211,41.978,57.209,41.943z"/>
		</g>
	</g>
</g>
<g>
	<path class="st0" d="M12.07,68.07l-0.391-0.195c-0.065-0.087-0.114-0.18-0.146-0.277c-0.033-0.098-0.039-0.201-0.017-0.31
		l0.163-0.326c0.196-0.087,0.391-0.174,0.587-0.261c0.195-0.087,0.391-0.174,0.586-0.261c0.174-0.326,0.283-0.679,0.326-1.06
		c0.043-0.38,0.054-0.766,0.032-1.157l-0.065-0.195c-0.283,0.326-0.57,0.646-0.864,0.962s-0.614,0.581-0.961,0.799l-0.587,0.098
		l-0.326-0.163c-0.065-0.087-0.114-0.18-0.147-0.277c-0.032-0.098-0.038-0.201-0.016-0.31l0.163-0.326
		c0.217-0.087,0.424-0.212,0.619-0.375c0.196-0.162,0.38-0.342,0.554-0.537l0.782-0.945c0.087-0.065,0.179-0.136,0.277-0.212
		c0.098-0.076,0.201-0.114,0.31-0.114v-0.065l-0.326-1.108h-0.065c-0.304,0.218-0.603,0.43-0.896,0.636
		c-0.293,0.207-0.636,0.31-1.027,0.31l-0.326-0.162c-0.065-0.087-0.114-0.18-0.146-0.277s-0.038-0.201-0.016-0.31l0.163-0.326
		c0.304-0.131,0.603-0.282,0.896-0.456s0.57-0.381,0.831-0.619c-0.152-0.305-0.358-0.598-0.619-0.881
		c-0.261-0.282-0.402-0.608-0.424-0.978l0.163-0.326c0.087-0.064,0.179-0.113,0.277-0.146c0.098-0.032,0.201-0.038,0.31-0.017
		l0.326,0.163c0.108,0.218,0.245,0.43,0.408,0.636c0.163,0.207,0.331,0.396,0.505,0.57c0.283-0.304,0.516-0.624,0.701-0.961
		s0.375-0.679,0.571-1.027c0.086-0.064,0.179-0.113,0.277-0.146c0.098-0.032,0.201-0.038,0.31-0.017l0.326,0.163
		c0.065,0.088,0.114,0.18,0.146,0.277s0.038,0.212,0.016,0.342c-0.195,0.479-0.445,0.935-0.75,1.369s-0.63,0.858-0.978,1.271
		c0.283,0.717,0.505,1.445,0.668,2.184s0.233,1.499,0.212,2.282c-0.043,0.412-0.109,0.82-0.196,1.222s-0.261,0.766-0.521,1.092
		c-0.261,0.174-0.527,0.337-0.798,0.489C12.694,67.961,12.396,68.048,12.07,68.07z M21.587,61.453l-0.326-0.162
		c-0.065-0.087-0.114-0.18-0.146-0.277s-0.049-0.201-0.049-0.31l0.195-1.662h-0.228l-1.891,0.13v0.587l0.033,0.88l-0.163,0.326
		c-0.087,0.065-0.179,0.114-0.277,0.146s-0.201,0.038-0.31,0.017L18.1,60.964c-0.152-0.239-0.223-0.511-0.212-0.815
		s0.005-0.597-0.016-0.88h-0.195l-0.88,0.131c-0.087-0.021-0.168-0.049-0.244-0.082c-0.076-0.032-0.147-0.07-0.212-0.113
		c-0.065-0.087-0.114-0.18-0.147-0.277c-0.032-0.098-0.038-0.201-0.016-0.31l0.163-0.326c0.217-0.13,0.451-0.206,0.701-0.229
		c0.25-0.021,0.505-0.054,0.766-0.098l-0.13-0.782c0.021-0.087,0.049-0.168,0.081-0.244c0.033-0.076,0.071-0.146,0.114-0.212
		c0.087-0.065,0.179-0.114,0.277-0.146c0.098-0.033,0.201-0.038,0.31-0.017l0.326,0.163c0.108,0.174,0.174,0.364,0.196,0.57
		c0.021,0.207,0.043,0.407,0.065,0.603h0.457l1.792-0.13c0-0.195,0.011-0.392,0.033-0.587c0.021-0.195,0.087-0.369,0.195-0.521
		c0.087-0.065,0.179-0.114,0.277-0.146c0.098-0.032,0.201-0.038,0.31-0.017l0.326,0.163c0.065,0.087,0.114,0.18,0.147,0.277
		s0.038,0.212,0.016,0.342l-0.033,0.392c0.217,0,0.44-0.006,0.668-0.017s0.429,0.049,0.603,0.18
		c0.065,0.087,0.114,0.179,0.146,0.276c0.033,0.099,0.038,0.201,0.016,0.311l-0.163,0.325c-0.174,0.131-0.375,0.196-0.603,0.196
		s-0.451,0.011-0.668,0.032c-0.065,0.369-0.114,0.755-0.146,1.157c-0.033,0.401-0.114,0.788-0.245,1.157
		c-0.087,0.064-0.179,0.113-0.277,0.146C21.799,61.469,21.696,61.475,21.587,61.453z M18.882,68.396
		c-0.348-0.044-0.701-0.099-1.059-0.163c-0.358-0.065-0.679-0.229-0.961-0.489c-0.261-0.282-0.418-0.598-0.473-0.945
		c-0.055-0.348-0.114-0.706-0.179-1.075v-1.532l0.032-0.032v-1.5c0.022-0.108,0.049-0.217,0.082-0.325
		c0.033-0.108,0.082-0.207,0.147-0.294c0.717-0.174,1.45-0.287,2.2-0.342s1.494-0.104,2.233-0.146h1.728
		c0.152,0.021,0.293,0.064,0.424,0.13s0.261,0.142,0.391,0.229c0.173,0.217,0.304,0.451,0.391,0.7
		c0.087,0.25,0.141,0.517,0.163,0.799v1.662c-0.065,0.326-0.103,0.668-0.114,1.027c-0.011,0.358-0.092,0.689-0.245,0.994
		l-0.261,0.13l-0.13,0.261c-0.695,0.326-1.407,0.554-2.135,0.685C20.387,68.297,19.643,68.373,18.882,68.396z M19.664,67.124v-0.261
		l0.033-0.782l-0.065-0.782h-0.13l-0.033,0.032h-1.662l-0.326,0.065v0.326c0.043,0.195,0.076,0.391,0.098,0.587
		c0.022,0.195,0.076,0.38,0.163,0.554c0.282,0.13,0.592,0.206,0.929,0.229C19.007,67.114,19.338,67.124,19.664,67.124z
		 M19.501,64.061v-0.424l-0.065-0.718h-0.195c-0.283,0.044-0.571,0.076-0.864,0.099c-0.293,0.021-0.582,0.043-0.864,0.064v0.979
		C17.513,64.061,19.501,64.061,19.501,64.061z M22.728,63.865v-0.391c0-0.108-0.022-0.212-0.065-0.31
		c-0.044-0.098-0.076-0.201-0.098-0.31l-0.098-0.033h-1.532l-0.196,0.033l-0.033,0.456l0.065,0.651h0.196L22.728,63.865z
		 M22.565,66.44v-0.229l0.13-1.075H22.37l-1.467,0.098v0.163l0.065,1.499h0.065c0.261-0.043,0.521-0.108,0.782-0.195
		S22.326,66.527,22.565,66.44z"/>
	<path class="st0" d="M28.448,61.812l-0.326-0.163c-0.065-0.087-0.114-0.18-0.146-0.277s-0.038-0.201-0.016-0.31
		c0.239-0.392,0.521-0.761,0.847-1.108c0.326-0.348,0.641-0.695,0.945-1.043c0.5-0.478,0.989-0.978,1.467-1.499
		s0.934-1.054,1.369-1.598c0.13-0.086,0.261-0.162,0.391-0.228s0.271-0.087,0.423-0.065l0.326,0.163
		c0.304,0.326,0.646,0.619,1.027,0.88c0.38,0.261,0.755,0.511,1.125,0.75c0.608,0.325,1.2,0.685,1.776,1.075
		c0.576,0.392,1.157,0.771,1.744,1.141c0.065,0.087,0.114,0.18,0.146,0.277s0.038,0.201,0.017,0.31L39.4,60.443
		c-0.065,0.065-0.142,0.108-0.229,0.13c-0.087,0.022-0.174,0.044-0.261,0.065c-0.956-0.587-1.912-1.168-2.868-1.744
		c-0.956-0.575-1.89-1.2-2.803-1.874l-2.542,2.771h-0.065l-1.564,1.825c-0.087,0.065-0.179,0.12-0.277,0.163
		C28.693,61.823,28.579,61.833,28.448,61.812z M32.979,69.373c-0.261-0.044-0.517-0.114-0.766-0.212
		c-0.25-0.098-0.483-0.233-0.701-0.407c-0.543-0.674-0.837-1.435-0.88-2.282s-0.076-1.684-0.098-2.51
		c0.021-0.543,0.071-1.086,0.147-1.629c0.076-0.544,0.114-1.098,0.114-1.663l-0.033-0.293l0.163-0.326
		c0.348-0.151,0.717-0.217,1.108-0.195s0.771-0.011,1.141-0.098c-0.087-0.239-0.234-0.456-0.44-0.652
		c-0.207-0.195-0.299-0.434-0.277-0.717l0.163-0.326c0.087-0.064,0.179-0.113,0.277-0.146c0.098-0.032,0.201-0.038,0.31-0.017
		l0.326,0.163l0.229,0.261c0.152,0.218,0.298,0.435,0.44,0.652c0.141,0.218,0.223,0.456,0.244,0.717h1.728
		c0.087,0.022,0.174,0.055,0.261,0.098c0.087,0.044,0.174,0.098,0.261,0.163v0.065h0.065c0.152,0.218,0.228,0.456,0.228,0.717
		s0.021,0.521,0.065,0.782v2.575l-0.163,0.326c-0.13,0.108-0.283,0.163-0.457,0.163s-0.337,0.011-0.489,0.032l-0.033-0.032H34.12
		c-0.37,0.064-0.744,0.113-1.125,0.146c-0.38,0.032-0.766,0.038-1.157,0.016v0.392c0,0.479,0.027,0.951,0.082,1.418
		c0.054,0.467,0.223,0.896,0.505,1.287c0.108,0.065,0.228,0.125,0.358,0.18s0.271,0.081,0.424,0.081
		c0.108-0.043,0.223-0.075,0.342-0.098c0.119-0.021,0.212-0.076,0.277-0.163c-0.13-0.151-0.212-0.32-0.245-0.505
		c-0.032-0.185-0.071-0.375-0.114-0.57c0.021-0.218,0.054-0.43,0.098-0.636s0.141-0.396,0.293-0.57
		c0.282-0.261,0.608-0.429,0.978-0.505s0.75-0.093,1.141-0.049c0.108,0.021,0.217,0.06,0.326,0.113
		c0.108,0.055,0.207,0.114,0.293,0.18c0.13,0.152,0.223,0.326,0.277,0.521c0.055,0.195,0.071,0.402,0.049,0.619
		c-0.065,0.218-0.152,0.43-0.261,0.636s-0.25,0.396-0.424,0.57c0.261,0.065,0.527,0.108,0.798,0.13
		c0.271,0.022,0.549,0.033,0.831,0.033c0.174,0,0.326-0.043,0.457-0.131c0.13-0.087,0.282-0.119,0.456-0.098l0.326,0.163
		c0.087,0.108,0.152,0.223,0.196,0.343c0.043,0.119,0.054,0.244,0.032,0.374l-0.163,0.326c-0.282,0.152-0.586,0.239-0.913,0.261
		c-0.326,0.021-0.663,0.033-1.01,0.033c-0.37-0.044-0.733-0.093-1.092-0.147c-0.358-0.054-0.723-0.125-1.092-0.212
		c-0.326,0.196-0.663,0.348-1.011,0.457C33.707,69.286,33.348,69.351,32.979,69.373z M35.782,63.311V63.05h-0.554l-0.032,0.032H33.5
		l-0.033,0.033h-1.532c-0.065,0.043-0.098,0.098-0.098,0.163c0,0.064,0,0.13,0,0.195h1.173l1.108-0.163h1.664V63.311z
		 M35.782,61.746v-0.229l-0.065-0.521l-1.239-0.032l-2.444,0.163v0.717h1.434l0.032-0.032h1.695L35.782,61.746z M34.967,67.157
		c0.13-0.13,0.255-0.266,0.375-0.407s0.212-0.288,0.277-0.439l-0.456-0.033l-0.358,0.131l-0.033,0.521l0.098,0.261h0.065
		L34.967,67.157z"/>
	<path class="st0" d="M46.456,68.036c-0.456-0.021-0.913-0.07-1.369-0.146c-0.457-0.075-0.87-0.255-1.239-0.537
		c-0.283-0.5-0.435-1.038-0.456-1.614c-0.022-0.575-0.055-1.156-0.098-1.743v-1.532c0.065-0.326,0.104-0.662,0.114-1.011
		c0.011-0.347,0.016-0.694,0.016-1.043l-0.032-0.032c0.021-0.087,0.049-0.168,0.082-0.244c0.032-0.076,0.07-0.146,0.114-0.212
		c0.261-0.131,0.538-0.218,0.831-0.261c0.293-0.044,0.592-0.055,0.896-0.033V59.4l-0.098-1.206c-0.174,0.043-0.364,0.065-0.57,0.065
		c-0.207,0-0.408,0-0.603,0c-0.087-0.022-0.168-0.049-0.245-0.082c-0.076-0.032-0.146-0.07-0.212-0.114
		c-0.065-0.087-0.114-0.179-0.146-0.276s-0.038-0.201-0.017-0.31l0.163-0.326c0.674-0.131,1.358-0.212,2.054-0.244
		c0.695-0.033,1.391-0.082,2.086-0.147h1.629l0.326,0.163c0.065,0.087,0.114,0.18,0.146,0.277c0.033,0.098,0.038,0.201,0.017,0.31
		l-0.163,0.326c-0.217,0.13-0.462,0.195-0.733,0.195s-0.538,0-0.798,0v1.141l0.032,0.195c0.326-0.021,0.63,0,0.913,0.065
		c0.283,0.065,0.543,0.195,0.782,0.392c0.435,0.825,0.636,1.717,0.603,2.673c-0.032,0.956,0.005,1.901,0.114,2.835v1.304
		c-0.022,0.109-0.043,0.207-0.065,0.294c-0.021,0.087-0.065,0.174-0.13,0.261l-0.293,0.13l-0.13,0.294
		c-0.326,0.195-0.685,0.293-1.076,0.293s-0.771,0.044-1.141,0.13h-1.304V68.036z M49.259,64.386V63.93l-0.032-0.098h-0.098
		l-0.88,0.032c-0.13-0.021-0.25-0.054-0.358-0.098c-0.109-0.043-0.218-0.108-0.326-0.195c-0.261-0.413-0.407-0.869-0.44-1.369
		c-0.033-0.499-0.082-0.988-0.147-1.467h-0.065l-0.228,0.033c0.021,0.456,0.011,0.907-0.033,1.353s-0.185,0.853-0.424,1.222
		c-0.065,0.065-0.141,0.109-0.228,0.131s-0.174,0.043-0.261,0.065c-0.087-0.022-0.168-0.049-0.245-0.082
		c-0.076-0.032-0.146-0.07-0.212-0.114c-0.065-0.087-0.114-0.179-0.146-0.276c-0.033-0.099-0.038-0.201-0.016-0.31
		c0.173-0.283,0.266-0.581,0.277-0.896s0.016-0.646,0.016-0.994h-0.098l-0.619,0.032c-0.022,0.261-0.033,0.527-0.033,0.799
		s-0.033,0.527-0.098,0.766v1.532l0.033,0.587h0.163c0.239-0.044,0.489-0.071,0.75-0.082s0.521-0.026,0.782-0.049h2.216l0.685-0.065
		l0.032,0.033L49.259,64.386z M49.194,66.537l0.13-0.032v-0.88h-0.13l-0.685,0.098h-2.216l-1.532,0.13l-0.032-0.032l-0.033,0.293
		l0.065,0.358c0.261,0.109,0.532,0.18,0.815,0.212c0.282,0.033,0.576,0.061,0.88,0.082h1.304c0.239-0.021,0.478-0.055,0.717-0.098
		C48.716,66.624,48.955,66.581,49.194,66.537z M46.88,59.465l0.033-0.261l-0.065-1.011l0.033-0.098h-0.228l-0.13,0.032v0.358
		l0.065,1.011h0.261L46.88,59.465z M49.162,62.561v-1.173c-0.022-0.108-0.043-0.223-0.065-0.343
		c-0.021-0.119-0.076-0.223-0.163-0.31c-0.087-0.065-0.19-0.098-0.31-0.098s-0.244,0-0.375,0v0.229
		c0.065,0.282,0.103,0.57,0.114,0.863c0.011,0.294,0.049,0.581,0.114,0.864h0.521L49.162,62.561z M54.508,68.07
		c-0.479-0.021-0.936-0.093-1.369-0.212c-0.436-0.119-0.838-0.343-1.207-0.668c-0.326-0.435-0.51-0.918-0.553-1.451
		c-0.045-0.532-0.088-1.069-0.131-1.613v-1.434l-0.066-0.619l0.066-0.294l-0.033-0.293l0.164-0.326
		c0.086-0.087,0.195-0.136,0.324-0.146c0.131-0.011,0.262-0.017,0.393-0.017l0.912,0.033l0.033-0.033h1.76l0.945,0.065
		c0.064-0.326,0.098-0.652,0.098-0.978s0-0.663,0-1.011l-0.164-0.848c-0.064-0.043-0.141-0.07-0.227-0.081
		c-0.088-0.011-0.164-0.027-0.229-0.049h-3.488l-0.424,0.065l-0.326-0.163c-0.065-0.087-0.114-0.18-0.146-0.277
		c-0.033-0.098-0.039-0.201-0.017-0.31l0.163-0.326c0.109-0.087,0.222-0.146,0.341-0.179c0.121-0.033,0.246-0.06,0.375-0.082h3.619
		c0.238,0.022,0.473,0.071,0.701,0.146c0.227,0.076,0.428,0.201,0.602,0.375c0.305,0.413,0.463,0.88,0.473,1.401
		c0.012,0.521,0.018,1.043,0.018,1.564c-0.023,0.326-0.061,0.642-0.115,0.945c-0.055,0.305-0.146,0.598-0.277,0.88
		c-0.195,0.131-0.418,0.196-0.668,0.196s-0.494,0-0.732,0l-0.521-0.065h-1.76l-0.588,0.065l0.066,0.358v1.434
		c0.021,0.37,0.049,0.745,0.08,1.125c0.033,0.38,0.115,0.733,0.244,1.06h0.066l0.357,0.261c0.305,0.108,0.625,0.174,0.963,0.195
		c0.336,0.021,0.678,0.032,1.025,0.032c0.174-0.043,0.348-0.098,0.521-0.163c0.174-0.064,0.326-0.174,0.457-0.325l0.293-0.587
		c0.088-0.065,0.18-0.114,0.277-0.146c0.098-0.033,0.201-0.038,0.311-0.017l0.324,0.163c0.088,0.108,0.137,0.228,0.148,0.358
		c0.01,0.13,0.016,0.261,0.016,0.391c-0.064,0.152-0.152,0.305-0.262,0.457c-0.107,0.152-0.217,0.293-0.324,0.424l-0.197,0.098
		v0.064c-0.324,0.239-0.684,0.397-1.074,0.473C55.354,68.064,54.941,68.091,54.508,68.07z"/>
	<path class="st0" d="M68.637,68.494l-0.815-0.392c-0.13-0.174-0.255-0.348-0.375-0.521c-0.119-0.174-0.168-0.38-0.146-0.619
		l0.163-0.326c0.087-0.064,0.18-0.114,0.277-0.146s0.2-0.038,0.31-0.017l0.326,0.163c0.064,0.087,0.119,0.186,0.162,0.294
		c0.044,0.108,0.12,0.185,0.229,0.228c0.282-0.195,0.511-0.439,0.685-0.733c0.174-0.293,0.337-0.581,0.489-0.863
		c0.087-0.282,0.168-0.57,0.244-0.864c0.076-0.293,0.104-0.603,0.081-0.929l-0.162-0.358c-0.283-0.13-0.593-0.195-0.93-0.195
		s-0.668,0-0.994,0l-1.206,0.293c-0.348,0.695-0.706,1.38-1.075,2.054s-0.782,1.325-1.238,1.955
		c-0.087,0.065-0.18,0.114-0.277,0.147c-0.098,0.032-0.201,0.038-0.31,0.016l-0.326-0.163c-0.065-0.086-0.114-0.179-0.146-0.276
		s-0.038-0.212-0.017-0.343c0.652-0.999,1.255-2.031,1.81-3.096c0.554-1.065,0.961-2.173,1.222-3.325H66.52
		c-0.608,0.109-1.217,0.201-1.825,0.277s-1.217,0.179-1.825,0.31c-0.087-0.021-0.169-0.049-0.244-0.081
		c-0.076-0.033-0.146-0.071-0.212-0.114c-0.065-0.087-0.114-0.18-0.146-0.277c-0.033-0.098-0.039-0.201-0.017-0.31l0.163-0.326
		c0.673-0.195,1.363-0.337,2.069-0.424c0.706-0.087,1.407-0.206,2.103-0.358c-0.108-0.348-0.207-0.706-0.293-1.075
		c-0.088-0.369-0.175-0.739-0.261-1.108c0.021-0.087,0.049-0.168,0.081-0.244s0.07-0.147,0.114-0.212
		c0.087-0.065,0.179-0.114,0.276-0.146c0.099-0.033,0.201-0.038,0.311-0.017l0.325,0.163c0.152,0.391,0.271,0.787,0.358,1.189
		s0.163,0.81,0.229,1.223l-0.032,0.098h0.098c0.564-0.108,1.13-0.19,1.694-0.245c0.565-0.054,1.142-0.081,1.728-0.081
		c0.108,0.021,0.223,0.049,0.343,0.081c0.119,0.033,0.223,0.082,0.31,0.147c0.065,0.087,0.114,0.179,0.146,0.276
		s0.038,0.201,0.017,0.31l-0.163,0.326c-0.065,0.065-0.142,0.108-0.229,0.131c-0.087,0.021-0.174,0.043-0.261,0.064
		c-0.152-0.043-0.315-0.064-0.488-0.064c-0.175,0-0.349,0-0.521,0c-0.392,0.043-0.788,0.087-1.19,0.13
		c-0.401,0.044-0.798,0.087-1.189,0.131v0.098l0.032,0.293c-0.13,0.218-0.211,0.451-0.244,0.701
		c-0.032,0.25-0.104,0.494-0.212,0.733h0.065c0.282-0.087,0.576-0.131,0.88-0.131s0.608,0,0.913,0
		c0.261,0.044,0.516,0.087,0.766,0.131c0.25,0.043,0.483,0.141,0.701,0.293c0.325,0.261,0.521,0.57,0.586,0.929
		c0.065,0.358,0.087,0.733,0.065,1.125c-0.087,0.651-0.277,1.282-0.57,1.891s-0.668,1.162-1.124,1.662
		c-0.196,0.108-0.387,0.228-0.571,0.358C69.087,68.46,68.875,68.515,68.637,68.494z"/>
	<path class="st0" d="M77.698,68.314l-0.326-0.163c-0.065-0.087-0.12-0.179-0.163-0.276c-0.044-0.099-0.055-0.212-0.032-0.343
		l0.162-0.326c0.087-0.064,0.152-0.151,0.196-0.261c0.043-0.108,0.098-0.206,0.163-0.293c0.13-0.435,0.255-0.863,0.374-1.287
		c0.12-0.424,0.201-0.864,0.245-1.32l-0.163-0.065c-0.065-0.087-0.114-0.179-0.146-0.277c-0.033-0.098-0.038-0.2-0.017-0.31
		l0.163-0.325l0.261-0.131v-0.848l-0.131-0.717l0.065-0.326h-0.13l-0.131,0.033c-0.087-0.021-0.169-0.049-0.244-0.082
		c-0.076-0.032-0.146-0.07-0.212-0.114c-0.065-0.087-0.114-0.179-0.146-0.276c-0.033-0.098-0.038-0.201-0.017-0.31l0.163-0.326
		c0.717-0.239,1.444-0.424,2.184-0.555c0.738-0.13,1.488-0.206,2.249-0.228c0.195,0.043,0.38,0.093,0.554,0.146
		c0.174,0.055,0.337,0.146,0.489,0.277c0.131,0.174,0.212,0.375,0.244,0.603c0.033,0.229,0.049,0.462,0.049,0.701
		c-0.064,0.413-0.152,0.82-0.261,1.222c-0.108,0.402-0.293,0.767-0.554,1.092c-0.108,0.088-0.218,0.158-0.326,0.212
		c-0.108,0.055-0.239,0.071-0.391,0.05l-0.358-0.131l-1.924,0.554c-0.064,0.718-0.189,1.435-0.374,2.151
		c-0.186,0.718-0.473,1.391-0.864,2.021h-0.065v0.064c-0.087,0.065-0.179,0.114-0.276,0.146
		C77.91,68.33,77.807,68.336,77.698,68.314z M78.382,58.536l-0.325-0.163c-0.065-0.086-0.114-0.179-0.146-0.276
		c-0.033-0.098-0.039-0.201-0.017-0.31l0.163-0.326c0.63-0.152,1.271-0.293,1.923-0.424c0.651-0.13,1.314-0.229,1.988-0.293
		l0.326,0.163c0.064,0.087,0.113,0.179,0.146,0.276c0.032,0.098,0.038,0.201,0.017,0.31l-0.163,0.326
		c-0.631,0.174-1.271,0.326-1.924,0.456C79.719,58.406,79.056,58.493,78.382,58.536z M81.837,62.024v-0.099
		c0.087-0.217,0.158-0.434,0.212-0.651c0.055-0.217,0.082-0.456,0.082-0.717C82,60.47,81.854,60.432,81.69,60.443
		s-0.32,0.017-0.473,0.017l-1.857,0.325l0.065,0.033c0.108,0.261,0.173,0.537,0.195,0.831c0.021,0.293,0.043,0.592,0.065,0.896
		h0.064c0.348-0.108,0.695-0.207,1.043-0.294S81.489,62.088,81.837,62.024z M87.997,69.129l-0.325-0.163
		c-0.065-0.087-0.114-0.18-0.147-0.277c-0.032-0.098-0.049-0.201-0.049-0.31l0.033-0.032v-3.194l0.032-0.033v-2.542l-0.098-0.554
		l-1.891,0.325c-0.087,0.565-0.239,1.125-0.456,1.679c-0.218,0.555-0.479,1.081-0.782,1.581l-0.229,0.229
		C83.998,65.902,83.9,65.957,83.792,66c-0.108,0.044-0.229,0.055-0.358,0.033l-0.326-0.163c-0.087-0.087-0.146-0.185-0.18-0.293
		c-0.032-0.108-0.038-0.229-0.016-0.359l0.163-0.325l0.293-0.163c0.369-0.674,0.652-1.386,0.848-2.135
		c0.195-0.75,0.271-1.516,0.228-2.298l-0.098-1.174c0.021-0.195,0.076-0.369,0.163-0.521s0.195-0.293,0.326-0.424
		c0.478-0.348,0.988-0.63,1.532-0.848c0.543-0.217,1.107-0.325,1.694-0.325l0.392,0.228c0.064,0.087,0.114,0.18,0.146,0.277
		s0.038,0.201,0.017,0.31l-0.163,0.326c-0.087,0.065-0.18,0.114-0.277,0.146s-0.212,0.038-0.342,0.017l-0.261-0.033
		c-0.326,0.087-0.642,0.201-0.945,0.343c-0.305,0.141-0.609,0.288-0.913,0.439c-0.043,0.088-0.065,0.18-0.065,0.277s0,0.19,0,0.277
		l0.098,1.434c0.695-0.13,1.396-0.238,2.103-0.325s1.418-0.12,2.135-0.099l0.326,0.163c0.065,0.087,0.114,0.18,0.146,0.277
		c0.033,0.098,0.038,0.201,0.017,0.31l-0.163,0.326c-0.218,0.152-0.462,0.223-0.733,0.212s-0.549-0.017-0.831-0.017v0.163
		l0.065,0.521v2.542l-0.033,0.033v3.292c-0.021,0.087-0.043,0.179-0.064,0.276c-0.022,0.099-0.065,0.18-0.131,0.245
		c-0.087,0.064-0.179,0.114-0.276,0.146C88.209,69.145,88.106,69.151,87.997,69.129z"/>
</g>
</svg>
